<?xml version="1.0" standalone="no"?>
<!DOCTYPE svg PUBLIC "-//W3C//DTD SVG 20010904//EN"
 "http://www.w3.org/TR/2001/REC-SVG-20010904/DTD/svg10.dtd">
<svg version="1.0" xmlns="http://www.w3.org/2000/svg"
 width="300.000000pt" height="270.000000pt" viewBox="0 0 300.000000 270.000000"
 preserveAspectRatio="xMidYMid meet">

<g transform="translate(0.000000,270.000000) scale(0.100000,-0.100000)"
fill="#000000" stroke="none">
<path d="M1410 2625 c-8 -2 -49 -9 -90 -15 -246 -40 -513 -187 -693 -381 -171
-184 -279 -401 -322 -645 -19 -112 -19 -327 0 -440 78 -449 420 -841 850 -977
153 -48 230 -60 395 -60 221 0 384 39 574 136 354 181 603 516 670 904 20 112
20 325 1 437 -92 528 -506 939 -1039 1031 -76 13 -297 19 -346 10z m431 -58
c388 -101 687 -354 841 -710 68 -156 90 -258 95 -447 8 -241 -27 -404 -130
-604 -172 -338 -479 -570 -862 -652 -110 -23 -360 -23 -470 0 -243 52 -441
155 -612 318 -197 188 -317 413 -369 684 -24 132 -15 384 19 514 115 438 443
770 878 890 121 33 184 39 354 35 130 -3 178 -8 256 -28z"/>
<path d="M1562 2389 l3 -82 37 -4 c29 -3 40 1 52 19 34 48 8 104 -43 96 -28
-4 -31 -2 -31 24 0 15 -5 28 -10 28 -7 0 -10 -30 -8 -81z m77 7 c7 -8 11 -27
9 -43 -2 -21 -9 -29 -27 -31 -13 -2 -28 2 -32 10 -29 45 17 104 50 64z"/>
<path d="M1310 2428 c0 -28 35 -148 43 -148 10 0 6 20 -19 108 -14 50 -24 66
-24 40z"/>
<path d="M1487 2374 c4 -34 2 -48 -8 -55 -27 -17 -39 -9 -50 36 -6 25 -16 45
-21 45 -6 0 -7 -7 -4 -16 3 -9 6 -24 6 -35 0 -10 8 -27 19 -38 16 -16 24 -17
55 -7 24 7 34 16 32 26 -2 8 -7 32 -11 53 -9 54 -26 46 -18 -9z"/>
<path d="M1200 2397 c-39 -20 -48 -61 -25 -105 16 -29 27 -38 52 -40 34 -3 73
12 73 29 0 5 -14 2 -31 -6 -28 -15 -33 -15 -55 -1 -45 30 -41 116 6 116 11 0
20 5 20 10 0 13 -10 12 -40 -3z"/>
<path d="M1990 2306 c-17 -36 -30 -69 -30 -74 0 -12 46 -32 75 -32 27 0 63 33
71 67 8 29 -17 68 -57 88 l-30 16 -29 -65z m79 18 c18 -13 22 -22 17 -47 -3
-16 -11 -36 -17 -44 -13 -15 -75 -18 -83 -4 -8 13 35 111 48 111 6 0 22 -7 35
-16z"/>
<path d="M1800 2330 c20 -13 40 -13 40 0 0 6 -12 10 -27 10 -22 0 -25 -2 -13
-10z"/>
<path d="M997 2250 c-16 -19 -16 -22 9 -60 15 -22 31 -40 35 -40 14 0 11 8
-13 41 -19 25 -20 33 -10 49 22 36 7 43 -21 10z"/>
<path d="M2131 2204 c-11 -15 -21 -34 -21 -44 0 -22 31 -50 56 -50 15 1 14 4
-8 16 -16 8 -28 23 -28 34 0 24 13 25 46 4 33 -23 52 -6 38 33 -13 40 -55 43
-83 7z m69 -15 c0 -23 -8 -23 -35 -3 -16 12 -17 16 -6 23 20 13 41 2 41 -20z"/>
<path d="M886 2174 c-20 -20 -20 -43 0 -72 18 -26 65 -30 88 -6 26 26 18 39
-8 14 -15 -13 -32 -20 -40 -17 -23 9 -20 23 10 46 22 17 24 23 14 36 -16 19
-44 19 -64 -1z m44 -12 c0 -5 -9 -17 -20 -27 -19 -18 -20 -17 -20 2 0 11 3 23
7 26 9 10 33 9 33 -1z"/>
<path d="M2240 2108 c-52 -62 -63 -79 -56 -86 4 -3 14 4 22 17 l16 22 15 -20
c19 -28 54 -26 82 3 28 29 25 67 -6 81 -13 5 -23 13 -23 17 0 17 -17 6 -50
-34z m69 3 c19 -12 6 -57 -20 -71 -15 -9 -24 -8 -35 1 -19 16 -18 35 6 59 22
22 29 24 49 11z"/>
<path d="M773 2066 c-16 -21 -20 -22 -40 -9 -14 9 -23 11 -23 5 0 -13 119
-106 127 -99 3 3 -11 20 -31 37 -30 26 -34 35 -26 51 14 26 33 24 68 -6 32
-26 42 -30 42 -16 0 10 -72 61 -88 61 -6 0 -19 -11 -29 -24z"/>
<path d="M2402 2043 c-19 -7 -81 -76 -82 -89 0 -6 6 -17 14 -23 11 -9 12 -7 9
12 -6 30 40 75 60 59 11 -9 14 -6 14 18 0 17 -1 30 -1 29 -1 0 -7 -3 -14 -6z"/>
<path d="M1494 1986 c-17 -8 -47 -30 -66 -49 -35 -34 -36 -35 -82 -24 -105 24
-222 -54 -245 -163 -6 -27 -8 -55 -6 -62 3 -8 -15 -30 -39 -51 -48 -40 -72
-95 -61 -139 4 -17 -1 -30 -19 -47 -36 -34 -50 -81 -37 -128 20 -75 85 -112
194 -113 26 0 47 -3 47 -7 0 -5 -18 -35 -40 -68 l-40 -60 75 -3 c41 -2 75 -6
75 -10 0 -4 -16 -65 -35 -137 -60 -222 -48 -220 92 20 58 99 107 181 108 183
2 2 17 -4 34 -12 16 -9 46 -16 66 -16 l35 0 0 -56 0 -56 47 7 c129 19 230 91
285 203 30 60 33 75 33 157 0 82 -3 97 -33 157 -55 113 -154 184 -285 203 -45
7 -47 6 -47 -18 0 -18 -6 -26 -23 -29 -18 -4 -31 5 -56 33 -63 76 -157 77
-227 4 -38 -39 -44 -42 -80 -36 -30 5 -40 11 -42 29 -8 58 53 152 115 178 40
17 89 18 133 3 30 -11 34 -10 56 19 27 35 83 72 108 72 14 0 16 -14 16 -99 l0
-99 55 -4 c30 -1 55 0 55 3 0 14 -91 201 -104 215 -18 17 -22 17 -62 0z m-59
-287 c19 -17 35 -37 35 -45 0 -21 22 -27 53 -15 l27 11 0 -206 0 -205 -259 3
-260 3 -30 29 c-51 49 -51 117 1 166 18 17 23 32 23 75 0 46 4 58 29 84 38 40
81 54 126 41 47 -14 46 -14 60 21 17 41 65 69 117 69 33 0 50 -7 78 -31z
m-129 -523 c-35 -47 -33 -55 14 -51 22 2 42 -1 46 -6 5 -8 -122 -239 -131
-239 -2 0 9 47 24 105 16 57 26 107 23 110 -3 3 -34 5 -69 5 l-63 0 36 55 37
55 55 0 54 0 -26 -34z m84 -13 c0 -8 -12 -13 -30 -13 -35 0 -36 2 -13 36 16
25 17 25 30 8 7 -10 13 -24 13 -31z m160 7 c0 -40 0 -40 -39 -40 -40 0 -82 25
-101 61 -10 18 -7 19 65 19 l75 0 0 -40z"/>
<path d="M683 1966 c-15 -9 -19 -16 -13 -27 5 -8 13 -14 18 -14 5 0 24 -9 44
-19 35 -19 68 -17 68 4 0 7 -8 9 -20 5 -29 -9 -79 23 -73 46 6 21 6 21 -24 5z"/>
<path d="M2370 1880 c0 -5 5 -10 10 -10 6 0 10 5 10 10 0 6 -4 10 -10 10 -5 0
-10 -4 -10 -10z"/>
<path d="M620 1851 c-12 -24 -13 -41 -1 -41 5 0 11 10 13 23 2 12 10 22 18 22
11 0 14 -10 12 -42 -3 -35 0 -42 18 -48 27 -8 37 1 50 44 9 31 7 33 -25 47
-47 19 -72 18 -85 -5z m89 -25 c14 -16 4 -46 -14 -46 -19 0 -27 17 -20 40 7
23 18 25 34 6z"/>
<path d="M1886 1764 c-54 -18 -101 -35 -103 -37 -2 -3 29 -37 68 -76 39 -39
73 -70 75 -68 4 4 74 204 74 212 0 8 -8 6 -114 -31z"/>
<path d="M2482 1764 c-17 -12 -22 -24 -20 -46 4 -39 28 -55 64 -43 40 15 56
44 41 75 -15 30 -53 37 -85 14z m78 -29 c0 -40 -73 -62 -85 -25 -8 24 1 39 29
50 25 9 56 -4 56 -25z"/>
<path d="M572 1728 c-32 -32 4 -88 55 -88 25 0 53 35 52 65 0 15 -4 12 -15
-12 -9 -22 -21 -33 -35 -33 -15 0 -19 4 -15 16 20 52 19 64 -6 64 -13 0 -29
-5 -36 -12z m38 -5 c0 -20 -13 -53 -20 -53 -14 0 -21 32 -9 46 12 15 29 19 29
7z"/>
<path d="M2590 1640 c0 -4 -20 -13 -45 -20 -25 -7 -45 -17 -45 -21 0 -5 12 -6
28 -2 15 4 38 7 52 8 14 0 31 7 38 15 10 13 14 13 27 -4 8 -11 18 -17 21 -13
12 12 -16 35 -46 39 -17 3 -30 1 -30 -2z"/>
<path d="M484 1611 c3 -4 26 -14 51 -21 25 -7 45 -16 45 -20 0 -4 -25 -12 -55
-19 -30 -7 -55 -16 -55 -21 0 -5 21 -16 48 -26 66 -24 70 -31 20 -39 -51 -9
-85 -24 -52 -25 41 0 135 23 131 33 -2 6 -27 19 -55 30 -29 11 -50 22 -48 24
2 3 28 10 57 16 29 7 54 17 56 24 3 7 -23 20 -65 32 -77 23 -85 25 -78 12z"/>
<path d="M1973 1356 l0 -104 100 47 c55 26 102 51 104 57 2 7 -111 66 -197
102 -4 1 -7 -44 -7 -102z"/>
<path d="M2568 1443 c-21 -2 -38 -8 -38 -14 0 -5 24 -7 58 -4 l57 6 -58 -31
c-32 -17 -55 -35 -52 -39 3 -5 27 -14 55 -21 59 -14 66 -30 13 -30 -21 0 -45
-5 -53 -10 -11 -7 -4 -10 25 -10 110 0 153 30 73 50 -86 22 -87 24 -28 56 90
49 77 60 -52 47z"/>
<path d="M556 1275 c-17 -41 -36 -46 -36 -10 0 14 -4 25 -10 25 -14 0 -13 -43
2 -58 21 -21 39 -13 54 24 17 41 36 40 45 -2 l7 -29 1 31 c2 59 -41 73 -63 19z"/>
<path d="M2532 1228 c-7 -7 -11 -26 -11 -42 2 -28 2 -28 6 -6 11 58 43 66 43
11 0 -45 6 -52 37 -40 30 11 39 46 17 70 -19 21 -73 26 -92 7z m86 -33 c4 -17
-16 -38 -29 -30 -3 3 -4 16 -1 30 5 29 25 29 30 0z"/>
<path d="M578 1166 c-50 -12 -73 -26 -42 -26 32 0 94 20 94 30 0 6 -1 9 -2 9
-2 -1 -24 -6 -50 -13z"/>
<path d="M480 1140 c0 -5 5 -10 10 -10 6 0 10 5 10 10 0 6 -4 10 -10 10 -5 0
-10 -4 -10 -10z"/>
<path d="M1893 1105 c-13 -19 -45 -52 -73 -74 l-50 -39 33 -12 c112 -41 197
-68 197 -62 0 14 -74 222 -80 222 -3 0 -15 -16 -27 -35z"/>
<path d="M583 1092 c-44 -17 -61 -40 -20 -27 54 16 69 17 78 4 16 -25 9 -37
-31 -53 -22 -9 -40 -20 -40 -26 0 -13 69 15 90 36 13 12 12 18 -4 49 -22 40
-17 39 -73 17z"/>
<path d="M2497 1094 c-4 -4 -7 -14 -7 -23 0 -12 2 -12 13 2 10 14 18 15 50 6
23 -6 37 -16 38 -27 0 -10 3 -12 6 -4 2 6 11 12 19 12 17 0 18 8 2 23 -15 13
-110 22 -121 11z"/>
<path d="M2474 1002 c-11 -7 -34 -45 -34 -56 0 -17 19 -2 24 19 4 17 13 25 27
25 21 0 22 -15 3 -64 -5 -13 1 -16 25 -16 24 0 34 6 43 26 11 24 9 29 -15 50
-28 24 -53 30 -73 16z m76 -52 c0 -18 -26 -35 -34 -22 -2 4 0 17 5 30 10 26
29 21 29 -8z"/>
<path d="M620 940 c-25 -25 -26 -52 -2 -73 23 -21 51 -22 80 -1 24 16 28 44
12 75 -14 25 -64 25 -90 -1z m84 -17 c9 -24 -23 -54 -53 -51 -35 4 -36 47 -2
64 27 14 47 9 55 -13z"/>
<path d="M1598 943 l-48 -4 0 -105 c0 -57 2 -104 5 -104 6 0 105 197 105 210
0 5 -3 9 -7 8 -5 -1 -29 -3 -55 -5z"/>
<path d="M2390 861 c-5 -11 -10 -26 -10 -35 0 -18 47 -56 70 -56 22 0 50 31
50 57 0 47 -88 75 -110 34z m64 -2 c53 -25 34 -83 -21 -63 -31 10 -44 51 -21
65 16 11 13 11 42 -2z"/>
<path d="M740 841 c0 -5 7 -14 15 -21 24 -20 18 -32 -36 -74 -28 -21 -48 -41
-45 -44 6 -5 58 29 104 68 l23 19 -22 31 c-22 29 -39 39 -39 21z"/>
<path d="M2330 764 c0 -3 14 -17 31 -31 22 -19 30 -33 26 -50 -2 -12 0 -23 4
-23 5 0 9 9 9 20 0 11 5 20 10 20 20 0 9 15 -29 43 -39 27 -51 32 -51 21z"/>
<path d="M885 671 c9 -30 -40 -87 -62 -70 -9 8 -13 8 -13 0 0 -6 5 -11 11 -11
6 0 8 -8 4 -19 -5 -16 -2 -18 15 -14 11 3 20 10 20 15 0 6 11 23 25 40 29 35
31 50 9 69 -15 12 -16 11 -9 -10z"/>
<path d="M2236 664 c-24 -23 -19 -60 10 -83 35 -27 48 -26 72 4 23 29 19 59
-11 80 -28 19 -52 19 -71 -1z m70 -25 c21 -24 10 -52 -24 -57 -29 -4 -60 42
-42 63 17 21 44 19 66 -6z"/>
<path d="M924 570 c-31 -46 -26 -72 15 -78 11 -2 21 -8 21 -13 0 -20 16 -7 43
35 37 58 34 70 -6 22 -26 -31 -37 -37 -55 -32 -27 9 -28 20 -1 63 31 50 16 52
-17 3z"/>
<path d="M2150 592 c0 -15 89 -122 101 -122 6 0 -10 27 -36 60 -47 61 -65 78
-65 62z"/>
<path d="M2044 515 c-28 -42 12 -103 60 -91 37 9 50 39 32 75 -25 47 -66 55
-92 16z m70 -14 c25 -27 17 -55 -17 -59 -21 -3 -29 2 -38 22 -23 50 19 77 55
37z"/>
<path d="M1060 480 c-31 -67 -20 -74 13 -9 30 56 31 59 19 59 -5 0 -19 -22
-32 -50z"/>
<path d="M1908 513 c-35 -22 -40 -36 -23 -60 12 -16 17 -17 46 -6 40 16 51 7
21 -15 -17 -14 -22 -26 -20 -55 2 -20 4 -37 5 -37 12 0 73 36 77 46 3 7 -4 25
-16 39 -11 14 -21 38 -22 53 -3 54 -22 63 -68 35z m52 -18 c0 -18 -37 -38 -57
-31 -14 6 -14 9 2 26 21 23 55 27 55 5z m36 -86 c3 -6 -1 -18 -9 -27 -13 -12
-19 -13 -31 -3 -8 7 -12 19 -9 27 6 17 39 19 49 3z"/>
<path d="M1124 442 c-17 -45 -17 -46 6 -64 24 -19 50 -24 50 -9 0 5 -10 11
-22 13 -13 2 -24 11 -26 20 -3 14 4 17 40 15 42 -2 43 -1 43 28 0 26 -4 30
-37 36 -36 6 -37 5 -54 -39z m75 15 c13 -17 5 -27 -24 -27 -12 0 -25 3 -28 7
-9 8 12 33 28 33 7 0 18 -6 24 -13z"/>
<path d="M1810 470 c-6 -11 -10 -55 -8 -98 l3 -77 10 54 10 55 25 -37 c24 -35
40 -47 40 -29 0 5 -16 27 -35 49 -38 45 -44 77 -17 92 16 10 16 10 0 11 -10 0
-22 -9 -28 -20z"/>
<path d="M1267 425 c-24 -24 -21 -40 13 -68 46 -40 35 -75 -17 -56 -14 5 -23
5 -23 -1 0 -15 51 -24 69 -13 29 18 25 46 -9 75 -46 38 -36 63 23 54 49 -8 41
10 -9 20 -22 4 -36 1 -47 -11z"/>
<path d="M1015 400 c-3 -5 -1 -10 4 -10 6 0 11 5 11 10 0 6 -2 10 -4 10 -3 0
-8 -4 -11 -10z"/>
</g>
</svg>
